<svg width="25" height="25" viewBox="0 0 25 25" fill="none" xmlns="http://www.w3.org/2000/svg">
<path d="M18.3314 16.1223H17.1729L16.7623 15.7266C18.522 13.6748 19.4312 10.8755 18.9326 7.90038C18.2434 3.82607 14.8413 0.572492 10.7352 0.0741957C4.53221 -0.687904 -0.688308 4.52955 0.0742392 10.7289C0.572828 14.8326 3.82832 18.2327 7.90501 18.9215C10.8819 19.4198 13.6828 18.5112 15.7358 16.7525L16.1317 17.1628V18.3206L22.3641 24.5493C22.9653 25.1502 23.9478 25.1502 24.5491 24.5493C25.1503 23.9484 25.1503 22.9665 24.5491 22.3656L18.3314 16.1223ZM9.53276 16.1223C5.88133 16.1223 2.93379 13.1765 2.93379 9.52717C2.93379 5.87788 5.88133 2.93207 9.53276 2.93207C13.1842 2.93207 16.1317 5.87788 16.1317 9.52717C16.1317 13.1765 13.1842 16.1223 9.53276 16.1223Z" fill="#858585"/>
</svg>
