<svg width="21" height="18" viewBox="0 0 21 18" fill="none" xmlns="http://www.w3.org/2000/svg">
<path d="M17.6641 0.990654C15.0241 -0.809346 11.7641 0.0306542 10.0041 2.09065C8.24412 0.0306542 4.98412 -0.819346 2.34412 0.990654C0.94412 1.95065 0.0641195 3.57065 0.00411947 5.28065C-0.135881 9.16065 3.30412 12.2707 8.55412 17.0407L8.65412 17.1307C9.41412 17.8207 10.5841 17.8207 11.3441 17.1207L11.4541 17.0207C16.7041 12.2607 20.1341 9.15065 20.0041 5.27065C19.9441 3.57065 19.0641 1.95065 17.6641 0.990654ZM10.1041 15.5507L10.0041 15.6507L9.90412 15.5507C5.14412 11.2407 2.00412 8.39065 2.00412 5.50065C2.00412 3.50065 3.50412 2.00065 5.50412 2.00065C7.04412 2.00065 8.54412 2.99065 9.07412 4.36065H10.9441C11.4641 2.99065 12.9641 2.00065 14.5041 2.00065C16.5041 2.00065 18.0041 3.50065 18.0041 5.50065C18.0041 8.39065 14.8641 11.2407 10.1041 15.5507Z" fill="#858585"/>
</svg>
