<svg width="25" height="25" viewBox="0 0 25 25" fill="none" xmlns="http://www.w3.org/2000/svg">
<path d="M16.8259 16.4823L16.9712 16.6223H17.1729H18.1237L24.1948 22.7184L24.1956 22.7193C24.6015 23.1249 24.6015 23.7901 24.1956 24.1957C23.7896 24.6014 23.1235 24.6014 22.7175 24.1957L16.6317 18.1134V17.1628V16.9609L16.4915 16.8157L16.0956 16.4053L15.7684 16.0662L15.4105 16.3727C13.4641 18.0401 10.8113 18.9008 7.98831 18.4285C4.12917 17.7764 1.04238 14.5517 0.57059 10.6686L0.570499 10.6679C-0.152296 4.79168 4.79363 -0.152026 10.6743 0.570465L10.675 0.570554C14.5606 1.04211 17.7869 4.12702 18.4395 7.98317C18.9123 10.8044 18.0511 13.4557 16.3828 15.4011L16.0756 15.7592L16.4153 16.0866L16.8259 16.4823ZM2.43379 9.52717C2.43379 13.4529 5.60546 16.6223 9.53276 16.6223C13.4601 16.6223 16.6317 13.4529 16.6317 9.52717C16.6317 5.60146 13.4601 2.43207 9.53276 2.43207C5.60546 2.43207 2.43379 5.60146 2.43379 9.52717Z" fill="#858585"/>
<path d="M16.8259 16.4823L16.9712 16.6223H17.1729H18.1237L24.1948 22.7184L24.1956 22.7193C24.6015 23.1249 24.6015 23.7901 24.1956 24.1957C23.7896 24.6014 23.1235 24.6014 22.7175 24.1957L16.6317 18.1134V17.1628V16.9609L16.4915 16.8157L16.0956 16.4053L15.7684 16.0662L15.4105 16.3727C13.4641 18.0401 10.8113 18.9008 7.98831 18.4285C4.12917 17.7764 1.04238 14.5517 0.57059 10.6686L0.570499 10.6679C-0.152296 4.79168 4.79363 -0.152026 10.6743 0.570465L10.675 0.570554C14.5606 1.04211 17.7869 4.12702 18.4395 7.98317C18.9123 10.8044 18.0511 13.4557 16.3828 15.4011L16.0756 15.7592L16.4153 16.0866L16.8259 16.4823ZM2.43379 9.52717C2.43379 13.4529 5.60546 16.6223 9.53276 16.6223C13.4601 16.6223 16.6317 13.4529 16.6317 9.52717C16.6317 5.60146 13.4601 2.43207 9.53276 2.43207C5.60546 2.43207 2.43379 5.60146 2.43379 9.52717Z" stroke="black"/>
<path d="M16.8259 16.4823L16.9712 16.6223H17.1729H18.1237L24.1948 22.7184L24.1956 22.7193C24.6015 23.1249 24.6015 23.7901 24.1956 24.1957C23.7896 24.6014 23.1235 24.6014 22.7175 24.1957L16.6317 18.1134V17.1628V16.9609L16.4915 16.8157L16.0956 16.4053L15.7684 16.0662L15.4105 16.3727C13.4641 18.0401 10.8113 18.9008 7.98831 18.4285C4.12917 17.7764 1.04238 14.5517 0.57059 10.6686L0.570499 10.6679C-0.152296 4.79168 4.79363 -0.152026 10.6743 0.570465L10.675 0.570554C14.5606 1.04211 17.7869 4.12702 18.4395 7.98317C18.9123 10.8044 18.0511 13.4557 16.3828 15.4011L16.0756 15.7592L16.4153 16.0866L16.8259 16.4823ZM2.43379 9.52717C2.43379 13.4529 5.60546 16.6223 9.53276 16.6223C13.4601 16.6223 16.6317 13.4529 16.6317 9.52717C16.6317 5.60146 13.4601 2.43207 9.53276 2.43207C5.60546 2.43207 2.43379 5.60146 2.43379 9.52717Z" stroke="black" stroke-opacity="0.2"/>
</svg>
